<svg width="64" height="64" viewBox="0 0 64 64" fill="none" xmlns="http://www.w3.org/2000/svg">
  <path d="M32 8C26.201 8 22 14.426 22 22V28.06C18.11 31.27 16 35.65 16 40.74C16 50.58 23.164 56 32 56C40.836 56 48 50.58 48 40.74C48 35.65 45.89 31.27 42 28.06V22C42 14.426 37.799 8 32 8Z" fill="#13261B"/>
  <ellipse cx="25.5" cy="24.5" rx="3.5" ry="4.5" fill="#FFFDF7"/>
  <ellipse cx="38.5" cy="24.5" rx="3.5" ry="4.5" fill="#FFFDF7"/>
  <ellipse cx="26" cy="25" rx="1.2" ry="1.6" fill="#1C8B52"/>
  <ellipse cx="38" cy="25" rx="1.2" ry="1.6" fill="#1C8B52"/>
  <path d="M28 33C28 34.657 29.791 36 32 36C34.209 36 36 34.657 36 33" stroke="#B68424" stroke-width="2.5" stroke-linecap="round"/>
  <path d="M23 43C25.659 45.667 28.592 47 32 47C35.408 47 38.341 45.667 41 43" stroke="#1C8B52" stroke-width="3" stroke-linecap="round"/>
</svg>
